<svg width="146" height="146" viewBox="0 0 146 146" fill="none" xmlns="http://www.w3.org/2000/svg">
<path fill-rule="evenodd" clip-rule="evenodd" d="M43.0765 32.3076C45.6255 32.3076 47.6919 34.374 47.6919 36.923L47.6919 110.769C47.6919 113.318 45.6255 115.384 43.0765 115.384C40.5275 115.384 38.4612 113.318 38.4612 110.769L38.4612 36.923C38.4612 34.374 40.5275 32.3076 43.0765 32.3076Z" fill="url(#paint0_linear_32_560)"/>
<path fill-rule="evenodd" clip-rule="evenodd" d="M43.0765 32.3076C45.6255 32.3076 47.6919 34.374 47.6919 36.923L47.6919 110.769C47.6919 113.318 45.6255 115.384 43.0765 115.384C40.5275 115.384 38.4612 113.318 38.4612 110.769L38.4612 36.923C38.4612 34.374 40.5275 32.3076 43.0765 32.3076Z" fill="url(#paint1_linear_32_560)"/>
<path fill-rule="evenodd" clip-rule="evenodd" d="M73.8461 32.3076C76.3951 32.3076 78.4614 34.374 78.4614 36.923L78.4614 110.769C78.4614 113.318 76.3951 115.384 73.8461 115.384C71.2971 115.384 69.2307 113.318 69.2307 110.769L69.2307 36.923C69.2307 34.374 71.2971 32.3076 73.8461 32.3076Z" fill="url(#paint2_linear_32_560)"/>
<path fill-rule="evenodd" clip-rule="evenodd" d="M73.8461 32.3076C76.3951 32.3076 78.4614 34.374 78.4614 36.923L78.4614 110.769C78.4614 113.318 76.3951 115.384 73.8461 115.384C71.2971 115.384 69.2307 113.318 69.2307 110.769L69.2307 36.923C69.2307 34.374 71.2971 32.3076 73.8461 32.3076Z" fill="url(#paint3_linear_32_560)"/>
<path fill-rule="evenodd" clip-rule="evenodd" d="M104.615 32.3076C107.164 32.3076 109.23 34.374 109.23 36.923L109.23 110.769C109.23 113.318 107.164 115.384 104.615 115.384C102.066 115.384 99.9992 113.318 99.9992 110.769L99.9993 36.923C99.9993 34.374 102.066 32.3076 104.615 32.3076Z" fill="url(#paint4_linear_32_560)"/>
<path fill-rule="evenodd" clip-rule="evenodd" d="M104.615 32.3076C107.164 32.3076 109.23 34.374 109.23 36.923L109.23 110.769C109.23 113.318 107.164 115.384 104.615 115.384C102.066 115.384 99.9992 113.318 99.9992 110.769L99.9993 36.923C99.9993 34.374 102.066 32.3076 104.615 32.3076Z" fill="url(#paint5_linear_32_560)"/>
<g filter="url(#filter0_b_32_560)">
<circle cx="43.0766" cy="92.3072" r="12.3076" transform="rotate(90 43.0766 92.3072)" fill="#8AAEF5" fill-opacity="0.6"/>
<circle cx="43.0766" cy="92.3072" r="11.9999" transform="rotate(90 43.0766 92.3072)" stroke="url(#paint6_linear_32_560)" stroke-width="0.615382"/>
</g>
<g filter="url(#filter1_b_32_560)">
<circle cx="73.8462" cy="55.3843" r="12.3076" transform="rotate(90 73.8462 55.3843)" fill="#8AAEF5" fill-opacity="0.6"/>
<circle cx="73.8462" cy="55.3843" r="11.9999" transform="rotate(90 73.8462 55.3843)" stroke="url(#paint7_linear_32_560)" stroke-width="0.615382"/>
</g>
<g filter="url(#filter2_b_32_560)">
<circle cx="104.615" cy="92.3072" r="12.3076" transform="rotate(90 104.615 92.3072)" fill="#8AAEF5" fill-opacity="0.6"/>
<circle cx="104.615" cy="92.3072" r="11.9999" transform="rotate(90 104.615 92.3072)" stroke="url(#paint8_linear_32_560)" stroke-width="0.615382"/>
</g>
<defs>
<filter id="filter0_b_32_560" x="18.4614" y="67.6919" width="49.2305" height="49.2305" filterUnits="userSpaceOnUse" color-interpolation-filters="sRGB">
<feFlood flood-opacity="0" result="BackgroundImageFix"/>
<feGaussianBlur in="BackgroundImage" stdDeviation="6.15382"/>
<feComposite in2="SourceAlpha" operator="in" result="effect1_backgroundBlur_32_560"/>
<feBlend mode="normal" in="SourceGraphic" in2="effect1_backgroundBlur_32_560" result="shape"/>
</filter>
<filter id="filter1_b_32_560" x="49.2309" y="30.769" width="49.2305" height="49.2305" filterUnits="userSpaceOnUse" color-interpolation-filters="sRGB">
<feFlood flood-opacity="0" result="BackgroundImageFix"/>
<feGaussianBlur in="BackgroundImage" stdDeviation="6.15382"/>
<feComposite in2="SourceAlpha" operator="in" result="effect1_backgroundBlur_32_560"/>
<feBlend mode="normal" in="SourceGraphic" in2="effect1_backgroundBlur_32_560" result="shape"/>
</filter>
<filter id="filter2_b_32_560" x="79.9995" y="67.6919" width="49.2305" height="49.2305" filterUnits="userSpaceOnUse" color-interpolation-filters="sRGB">
<feFlood flood-opacity="0" result="BackgroundImageFix"/>
<feGaussianBlur in="BackgroundImage" stdDeviation="6.15382"/>
<feComposite in2="SourceAlpha" operator="in" result="effect1_backgroundBlur_32_560"/>
<feBlend mode="normal" in="SourceGraphic" in2="effect1_backgroundBlur_32_560" result="shape"/>
</filter>
<linearGradient id="paint0_linear_32_560" x1="45.6727" y1="56.272" x2="24.8184" y2="63.01" gradientUnits="userSpaceOnUse">
<stop stop-color="#917FFB"/>
<stop offset="1" stop-color="#3F2DAF"/>
</linearGradient>
<linearGradient id="paint1_linear_32_560" x1="47.6887" y1="13.8926" x2="32.4267" y2="14.3943" gradientUnits="userSpaceOnUse">
<stop stop-color="#8AAEF5"/>
<stop offset="1" stop-color="#7594D1"/>
</linearGradient>
<linearGradient id="paint2_linear_32_560" x1="76.4422" y1="56.272" x2="55.588" y2="63.01" gradientUnits="userSpaceOnUse">
<stop stop-color="#917FFB"/>
<stop offset="1" stop-color="#3F2DAF"/>
</linearGradient>
<linearGradient id="paint3_linear_32_560" x1="78.4583" y1="13.8926" x2="63.1962" y2="14.3943" gradientUnits="userSpaceOnUse">
<stop stop-color="#8AAEF5"/>
<stop offset="1" stop-color="#7594D1"/>
</linearGradient>
<linearGradient id="paint4_linear_32_560" x1="107.211" y1="56.272" x2="86.3565" y2="63.01" gradientUnits="userSpaceOnUse">
<stop stop-color="#917FFB"/>
<stop offset="1" stop-color="#3F2DAF"/>
</linearGradient>
<linearGradient id="paint5_linear_32_560" x1="109.227" y1="13.8926" x2="93.9648" y2="14.3943" gradientUnits="userSpaceOnUse">
<stop stop-color="#8AAEF5"/>
<stop offset="1" stop-color="#7594D1"/>
</linearGradient>
<linearGradient id="paint6_linear_32_560" x1="27.6921" y1="110.769" x2="52.3074" y2="83.0764" gradientUnits="userSpaceOnUse">
<stop stop-color="white"/>
<stop offset="1" stop-color="white" stop-opacity="0"/>
</linearGradient>
<linearGradient id="paint7_linear_32_560" x1="58.4616" y1="73.8458" x2="83.0769" y2="46.1536" gradientUnits="userSpaceOnUse">
<stop stop-color="white"/>
<stop offset="1" stop-color="white" stop-opacity="0"/>
</linearGradient>
<linearGradient id="paint8_linear_32_560" x1="89.2302" y1="110.769" x2="113.845" y2="83.0764" gradientUnits="userSpaceOnUse">
<stop stop-color="white"/>
<stop offset="1" stop-color="white" stop-opacity="0"/>
</linearGradient>
</defs>
</svg>
