<svg width="146" height="146" viewBox="0 0 146 146" fill="none" xmlns="http://www.w3.org/2000/svg">
<g filter="url(#filter0_b_32_547)">
<path d="M27.2773 67.4873C27.2773 57.8262 27.2773 52.9957 29.9604 49.4387C32.6434 45.8817 37.2881 44.5547 46.5774 41.9006L62.8801 37.2427C68.3271 35.6864 71.0506 34.9082 73.8458 34.9082C76.641 34.9082 79.3645 35.6864 84.8115 37.2427L101.114 41.9006C110.404 44.5547 115.048 45.8817 117.731 49.4387C120.414 52.9957 120.414 57.8262 120.414 67.4873V80.6781C120.414 99.4946 120.414 108.903 114.569 114.748C108.723 120.594 99.3149 120.594 80.4985 120.594H67.1931C48.3767 120.594 38.9684 120.594 33.1229 114.748C27.2773 108.903 27.2773 99.4946 27.2773 80.6781V67.4873Z" fill="url(#paint0_linear_32_547)"/>
</g>
<g filter="url(#filter1_b_32_547)">
<path fill-rule="evenodd" clip-rule="evenodd" d="M43.9091 20.8044C38.3979 20.8044 33.9302 26.9697 33.9302 34.5749V64.7117C53.4736 79.5374 63.7601 93.9096 73.846 93.9831C84.1456 94.0583 94.2361 79.5239 113.762 64.7117V34.5749C113.762 26.9697 109.294 20.8044 103.783 20.8044H43.9091Z" fill="#8AAEF5" fill-opacity="0.6"/>
<path d="M34.2361 34.5749C34.2361 30.8297 35.3366 27.4515 37.1007 25.0172C38.865 22.5826 41.276 21.1104 43.9091 21.1104H103.783C106.416 21.1104 108.827 22.5826 110.591 25.0172C112.355 27.4515 113.456 30.8297 113.456 34.5749V64.5598C106.467 69.8718 100.68 75.1505 95.6716 79.7194C93.7187 81.5009 91.884 83.1745 90.1425 84.7C87.0201 87.4352 84.2008 89.692 81.5274 91.2602C78.8555 92.8276 76.3486 93.6954 73.8482 93.6772C71.4005 93.6593 68.9203 92.774 66.2582 91.1999C63.5951 89.6253 60.7701 87.3738 57.6354 84.6486C55.8764 83.1194 54.0209 81.4418 52.0449 79.6552C47.0195 75.1117 41.2148 69.8636 34.2361 64.5598V34.5749Z" stroke="url(#paint1_linear_32_547)" stroke-width="0.611895"/>
</g>
<rect x="93.559" y="41.0072" width="6.16312" height="39.4263" rx="3.08156" transform="rotate(90 93.559 41.0072)" fill="url(#paint2_linear_32_547)" fill-opacity="0.9" stroke="url(#paint3_linear_32_547)" stroke-width="0.489516"/>
<rect x="93.559" y="60.965" width="6.16312" height="39.4263" rx="3.08156" transform="rotate(90 93.559 60.965)" fill="url(#paint4_linear_32_547)" fill-opacity="0.9" stroke="url(#paint5_linear_32_547)" stroke-width="0.489516"/>
<path fill-rule="evenodd" clip-rule="evenodd" d="M119.864 55.6341C120.238 57.8141 120.358 60.4559 120.396 63.7735L75.9439 99.8911C74.7218 100.884 72.9709 100.884 71.7488 99.8911L27.2954 63.7727C27.3337 60.4551 27.4534 57.8133 27.8275 55.6333L73.8464 93.0236L119.864 55.6341Z" fill="url(#paint6_linear_32_547)"/>
<defs>
<filter id="filter0_b_32_547" x="13.9721" y="21.6029" width="119.747" height="112.296" filterUnits="userSpaceOnUse" color-interpolation-filters="sRGB">
<feFlood flood-opacity="0" result="BackgroundImageFix"/>
<feGaussianBlur in="BackgroundImage" stdDeviation="6.65264"/>
<feComposite in2="SourceAlpha" operator="in" result="effect1_backgroundBlur_32_547"/>
<feBlend mode="normal" in="SourceGraphic" in2="effect1_backgroundBlur_32_547" result="shape"/>
</filter>
<filter id="filter1_b_32_547" x="20.6249" y="7.49917" width="106.442" height="99.7895" filterUnits="userSpaceOnUse" color-interpolation-filters="sRGB">
<feFlood flood-opacity="0" result="BackgroundImageFix"/>
<feGaussianBlur in="BackgroundImage" stdDeviation="6.65264"/>
<feComposite in2="SourceAlpha" operator="in" result="effect1_backgroundBlur_32_547"/>
<feBlend mode="normal" in="SourceGraphic" in2="effect1_backgroundBlur_32_547" result="shape"/>
</filter>
<linearGradient id="paint0_linear_32_547" x1="6.63232" y1="34.1391" x2="43.1979" y2="167.241" gradientUnits="userSpaceOnUse">
<stop stop-color="#8AAEF5"/>
<stop offset="1" stop-color="#7594D1"/>
</linearGradient>
<linearGradient id="paint1_linear_32_547" x1="77.1723" y1="9.82764" x2="75.776" y2="79.3193" gradientUnits="userSpaceOnUse">
<stop stop-color="white"/>
<stop offset="0.996024" stop-color="white" stop-opacity="0"/>
</linearGradient>
<linearGradient id="paint2_linear_32_547" x1="97.5088" y1="86.971" x2="97.5087" y2="33.3899" gradientUnits="userSpaceOnUse">
<stop stop-color="white"/>
<stop offset="1" stop-color="white" stop-opacity="0"/>
</linearGradient>
<linearGradient id="paint3_linear_32_547" x1="80.5766" y1="94.1811" x2="109.336" y2="32.9916" gradientUnits="userSpaceOnUse">
<stop stop-color="white"/>
<stop offset="1" stop-color="white" stop-opacity="0"/>
</linearGradient>
<linearGradient id="paint4_linear_32_547" x1="91.4423" y1="100.975" x2="97.3957" y2="52.6862" gradientUnits="userSpaceOnUse">
<stop stop-color="white"/>
<stop offset="1" stop-color="white" stop-opacity="0"/>
</linearGradient>
<linearGradient id="paint5_linear_32_547" x1="84.4827" y1="103.125" x2="107.735" y2="61.5159" gradientUnits="userSpaceOnUse">
<stop stop-color="white"/>
<stop offset="1" stop-color="white" stop-opacity="0"/>
</linearGradient>
<linearGradient id="paint6_linear_32_547" x1="6.65838" y1="55.6486" x2="17.097" y2="128.643" gradientUnits="userSpaceOnUse">
<stop stop-color="#8AAEF5"/>
<stop offset="1" stop-color="#526994"/>
</linearGradient>
</defs>
</svg>
