<svg width="32" height="32" viewBox="0 0 32 32" fill="none" xmlns="http://www.w3.org/2000/svg">
<path d="M4 12.4183L3.70166 11.4638C3.32024 11.583 3.04642 11.9179 3.00531 12.3154C2.96419 12.7129 3.16367 13.0967 3.51261 13.2915L4 12.4183ZM26.6667 5.33331L27.6181 5.64113C27.7332 5.28549 27.6403 4.89536 27.3773 4.62973C27.1143 4.36411 26.7251 4.26733 26.3683 4.37885L26.6667 5.33331ZM19.3333 28L18.451 28.4706C18.6398 28.8246 19.022 29.0315 19.4217 28.9961C19.8215 28.9606 20.1613 28.6896 20.2848 28.3078L19.3333 28ZM4.29834 13.3727L26.965 6.28777L26.3683 4.37885L3.70166 11.4638L4.29834 13.3727ZM25.7152 5.02549L18.3819 27.6922L20.2848 28.3078L27.6181 5.64113L25.7152 5.02549ZM20.2157 27.5294L14.8824 17.5294L13.1176 18.4706L18.451 28.4706L20.2157 27.5294ZM14.4874 17.1268L4.48739 11.5451L3.51261 13.2915L13.5126 18.8732L14.4874 17.1268ZM14.7071 18.7071L27.3738 6.04042L25.9596 4.62621L13.2929 17.2929L14.7071 18.7071Z" fill="#1F1F1F"/>
</svg>
